<?xml version="1.0" encoding="UTF-8" standalone="no"?>
<!-- Generator: Adobe Illustrator 16.0.3, SVG Export Plug-In . SVG Version: 6.00 Build 0)  -->

<svg
   version="1.1"
   id="Camada_1"
   x="0px"
   y="0px"
   width="48"
   height="48"
   viewBox="0 0 47.999998 47.999999"
   enable-background="new 0 0 595.28 841.89"
   xml:space="preserve"
   sodipodi:docname="logo3.svg"
   inkscape:version="1.2.2 (732a01da63, 2022-12-09)"
   xmlns:inkscape="http://www.inkscape.org/namespaces/inkscape"
   xmlns:sodipodi="http://sodipodi.sourceforge.net/DTD/sodipodi-0.dtd"
   xmlns="http://www.w3.org/2000/svg"
   xmlns:svg="http://www.w3.org/2000/svg"><defs
   id="defs10213" /><sodipodi:namedview
   id="namedview10211"
   pagecolor="#ffffff"
   bordercolor="#000000"
   borderopacity="0.25"
   inkscape:showpageshadow="2"
   inkscape:pageopacity="0.0"
   inkscape:pagecheckerboard="0"
   inkscape:deskcolor="#d1d1d1"
   showgrid="false"
   inkscape:zoom="11.247994"
   inkscape:cx="12.624473"
   inkscape:cy="24.182089"
   inkscape:window-width="1920"
   inkscape:window-height="1017"
   inkscape:window-x="-8"
   inkscape:window-y="-8"
   inkscape:window-maximized="1"
   inkscape:current-layer="Camada_1" />
<g
   id="g10208"
   style="fill:#ffffff;fill-opacity:1"
   transform="matrix(0.14917681,0,0,0.14917681,-17.343158,-27.523368)">
	<path
   fill-rule="evenodd"
   clip-rule="evenodd"
   stroke="#ffffff"
   stroke-miterlimit="10"
   d="m 196.996,254.989 c 9.338,-3.995 18.157,-7.863 27.05,-11.546 8.686,-3.598 17.486,-6.92 26.167,-10.531 5.705,-2.373 11.24,-5.153 16.937,-7.55 6.1,-2.567 12.331,-4.816 18.442,-7.358 5.813,-2.418 11.509,-5.116 17.319,-7.541 5.992,-2.502 12.093,-4.746 18.086,-7.245 6.041,-2.52 11.975,-5.294 18.018,-7.808 6.11,-2.542 12.301,-4.892 18.448,-7.349 1.823,-0.729 3.618,-1.533 6.268,-2.66 -1.984,5.229 -3.563,9.689 -5.362,14.058 -2.506,6.084 -5.176,12.101 -7.777,18.145 -3.648,8.474 -7.347,16.926 -10.932,25.427 -2.273,5.393 -4.32,10.88 -6.573,16.281 -3.802,9.112 -7.744,18.166 -11.515,27.29 -2.463,5.958 -4.614,12.046 -7.111,17.989 -3.535,8.417 -7.325,16.727 -10.879,25.137 -2.426,5.739 -4.61,11.58 -6.949,17.356 -0.675,1.667 -1.513,3.27 -2.575,5.544 -2.255,-6.512 -4.413,-12.328 -6.283,-18.235 -3.459,-10.925 -6.707,-21.917 -10.129,-32.854 -1.817,-5.809 -3.906,-11.534 -5.691,-17.351 -1.026,-3.346 -2.601,-5.264 -6.369,-6.369 -10.266,-3.008 -20.283,-6.854 -30.428,-10.286 -3.588,-1.214 -7.262,-2.169 -10.884,-3.283 -8.023,-2.466 -16.045,-4.934 -24.045,-7.469 -1.032,-0.326 -1.934,-1.057 -3.233,-1.792 z"
   id="path10200"
   style="fill:#ffffff;fill-opacity:1" />
	<path
   fill-rule="evenodd"
   clip-rule="evenodd"
   stroke="#ffffff"
   stroke-miterlimit="10"
   d="m 182.958,438.523 c 0.824,-37.83 31.006,-67.624 69.801,-65.852 33.702,1.539 63.291,29.598 62.622,67.912 -0.614,35.175 -31.195,64.95 -67.228,64.274 -37.619,-0.704 -65.286,-32.005 -65.195,-66.334 z m 64.267,44.429 c 25.856,0.3 45.565,-18.399 46.32,-43.024 0.725,-23.689 -18.78,-44.902 -43.116,-45.077 -11.881,-0.086 -22.205,3.629 -30.974,11.479 -9.639,8.627 -14.549,19.974 -14.545,32.507 0.003,11.821 4.237,22.805 13.193,31.325 8.705,8.28 18.844,13.087 29.122,12.79 z"
   id="path10202"
   style="fill:#ffffff;fill-opacity:1" />
	<path
   fill-rule="evenodd"
   clip-rule="evenodd"
   stroke="#ffffff"
   stroke-miterlimit="10"
   d="m 373.956,502.85 c -7.838,0 -14.941,0 -22.494,0 0,-34.923 0,-69.809 0,-105.233 -2.875,0 -5.322,10e-4 -7.771,0 -8.493,0 -16.988,-0.081 -25.48,0.044 -2.916,0.044 -4.018,-0.99 -3.944,-3.93 0.151,-5.973 0.045,-11.95 0.045,-18.188 32.196,0 64.082,0 96.343,0 0,6.608 -0.003,13.069 0.003,19.532 0.002,2.612 -1.837,2.54 -3.649,2.54 -9.369,-0.002 -18.737,0.002 -28.105,0.003 -1.492,0 -2.985,0 -4.946,0 -0.002,35.099 -0.002,69.979 -0.002,105.232 z"
   id="path10204"
   style="fill:#ffffff;fill-opacity:1" />
	<path
   fill-rule="evenodd"
   clip-rule="evenodd"
   stroke="#ffffff"
   stroke-miterlimit="10"
   d="m 170.963,502.857 c -7.186,0 -14.036,0 -21.182,0 0,-42.342 0,-84.608 0,-127.497 3.392,0 6.954,0 10.515,0 3.475,0 6.951,0 10.667,0 0,42.584 0,84.849 0,127.497 z"
   id="path10206"
   style="fill:#ffffff;fill-opacity:1" />
</g>
</svg>
