<?xml version="1.0" encoding="UTF-8" standalone="no"?>
<!-- Generator: Adobe Illustrator 16.0.3, SVG Export Plug-In . SVG Version: 6.00 Build 0)  -->

<svg
   version="1.1"
   id="Camada_1"
   x="0px"
   y="0px"
   width="48"
   height="48"
   viewBox="0 0 47.999998 47.999999"
   enable-background="new 0 0 595.28 841.89"
   xml:space="preserve"
   sodipodi:docname="logo2.svg"
   inkscape:version="1.2.2 (732a01da63, 2022-12-09)"
   xmlns:inkscape="http://www.inkscape.org/namespaces/inkscape"
   xmlns:sodipodi="http://sodipodi.sourceforge.net/DTD/sodipodi-0.dtd"
   xmlns="http://www.w3.org/2000/svg"
   xmlns:svg="http://www.w3.org/2000/svg"><defs
   id="defs12550" /><sodipodi:namedview
   id="namedview12548"
   pagecolor="#ffffff"
   bordercolor="#000000"
   borderopacity="0.25"
   inkscape:showpageshadow="2"
   inkscape:pageopacity="0.0"
   inkscape:pagecheckerboard="0"
   inkscape:deskcolor="#d1d1d1"
   showgrid="false"
   inkscape:zoom="7.953533"
   inkscape:cx="7.6695476"
   inkscape:cy="18.230892"
   inkscape:window-width="1920"
   inkscape:window-height="1017"
   inkscape:window-x="-8"
   inkscape:window-y="-8"
   inkscape:window-maximized="1"
   inkscape:current-layer="Camada_1" />
<g
   id="g12545"
   transform="matrix(0.15214384,0,0,0.15214384,-20.507585,-34.718283)"
   style="fill:#ffffff;fill-opacity:1">
	<path
   fill-rule="evenodd"
   clip-rule="evenodd"
   d="m 328.621,331.345 c -2.208,1.697 -4.195,3.225 -5.925,4.553 -4.94,-4.787 -9.225,-9.643 -14.225,-13.593 -5.42,-4.282 -11.336,-8.021 -17.354,-11.436 -5.168,-2.933 -10.783,-5.078 -16.202,-7.569 -0.225,-0.103 -0.457,-0.197 -0.694,-0.262 -15.814,-4.31 -31.945,-5.631 -48,-2.635 -8.957,1.671 -17.871,4.799 -26.123,8.709 -10.093,4.783 -19.111,11.409 -27.051,19.596 -6.517,6.722 -12.069,14.032 -16.691,22.031 -2.799,4.844 -5.033,10.117 -6.796,15.438 -4.356,13.146 -6.901,26.727 -5.288,40.562 1.129,9.682 2.397,19.5 7.026,28.436 2.48,4.787 4.109,10.074 6.978,14.592 3.959,6.24 8.388,12.26 13.226,17.844 7.224,8.338 16.315,14.535 25.904,19.826 4.92,2.715 10.352,4.541 15.631,6.564 8.803,3.375 18.104,4.584 27.394,4.721 12.52,0.184 25.156,-0.588 36.935,-5.178 8.123,-3.166 16.22,-7.027 23.322,-12.01 7.295,-5.119 13.495,-11.85 19.879,-18.172 1.527,-1.512 1.93,-2.178 3.568,-0.371 1.169,1.289 2.907,2.064 4.399,3.074 -40.068,49.809 -107.824,52.021 -150.669,18.068 -51.851,-41.09 -51.047,-108.802 -20.725,-149.14 21.061,-28.018 49.586,-43.054 84.512,-44.01 26.867,-0.736 58.896,7.318 86.969,40.362 z"
   id="path12535"
   style="fill:#ffffff;fill-opacity:1" />
	<path
   fill-rule="evenodd"
   clip-rule="evenodd"
   d="m 330.09,398.864 c 0,11.746 -0.258,23.499 0.073,35.235 0.327,11.615 -9.448,21.205 -20.95,21.137 -20.868,-0.125 -41.737,-0.176 -62.603,0.064 -7.652,0.088 -19.305,-7.086 -19.937,-15.836 -0.21,-2.912 -1.185,-5.795 -1.197,-8.695 -0.104,-22.118 -0.144,-44.236 -0.017,-66.353 0.055,-9.488 5.391,-18.692 15.888,-20.646 3.368,-0.627 6.786,-1.354 10.187,-1.381 17.368,-0.139 34.74,-0.202 52.106,0.026 4.647,0.061 9.401,0.787 13.889,2.008 5.527,1.503 12.626,9.206 12.532,17.329 -0.144,12.369 -0.038,24.74 -0.038,37.111 0.023,10e-4 0.045,10e-4 0.067,10e-4 z m -9.356,-0.054 c 0,-11.124 -0.352,-22.263 0.113,-33.367 0.361,-8.625 -4.982,-13.264 -13.101,-13.137 -20.118,0.314 -40.247,0.262 -60.367,0.017 -7.071,-0.086 -12,4.494 -11.941,11.958 0.183,23.122 0.242,46.248 -0.035,69.366 -0.089,7.402 6.135,12.332 12.363,12.27 20.247,-0.205 40.499,-0.268 60.743,0.039 6.043,0.092 12.635,-5.695 12.359,-12.279 -0.484,-11.605 -0.135,-23.243 -0.134,-34.867 z"
   id="path12537"
   style="fill:#ffffff;fill-opacity:1" />
	<path
   fill-rule="evenodd"
   clip-rule="evenodd"
   d="m 404.223,352.408 c 0,2.037 0,3.513 0,4.991 0,29.869 0.038,59.737 -0.081,89.605 -0.008,2.148 -0.812,4.502 -1.921,6.355 -0.598,0.998 -2.901,1.865 -3.953,1.479 -1.353,-0.498 -2.45,-2.188 -3.214,-3.604 -0.474,-0.879 -0.142,-2.203 -0.142,-3.326 -0.004,-30.12 -0.003,-60.238 -0.003,-90.356 0,-1.486 0,-2.973 0,-4.935 -1.659,-0.077 -3.097,-0.199 -4.534,-0.2 -12.748,-0.015 -25.495,0.014 -38.241,-0.044 -1.299,-0.006 -2.691,-0.286 -3.871,-0.815 -2.344,-1.051 -4.188,-3.024 -2.808,-5.509 0.915,-1.649 3.251,-2.537 5.01,-3.673 0.355,-0.229 0.979,-0.05 1.479,-0.05 30.368,0 60.736,-0.009 91.104,0.013 4.384,0.003 6.547,1.898 6.378,5.375 -0.137,2.826 -2.577,4.671 -6.428,4.682 -11.372,0.034 -22.745,0.013 -34.117,0.013 -1.357,-10e-4 -2.712,-10e-4 -4.658,-10e-4 z"
   id="path12539"
   style="fill:#ffffff;fill-opacity:1" />
	<path
   fill-rule="evenodd"
   clip-rule="evenodd"
   d="m 201.383,398.606 c 0,-16.487 -0.022,-32.975 0.042,-49.462 0.005,-1.389 0.21,-3.103 1.025,-4.08 0.999,-1.2 3.519,-2.825 4.019,-2.45 1.942,1.457 3.444,3.564 4.885,5.588 0.416,0.584 0.09,1.703 0.09,2.578 0.001,31.851 0.02,63.701 -0.048,95.552 -0.004,1.791 -0.683,3.59 -1.109,5.369 -0.62,2.59 -2.593,4.244 -4.852,3.225 -1.745,-0.785 -2.841,-3.189 -3.986,-5.023 -0.394,-0.631 -0.067,-1.711 -0.067,-2.584 0,-16.237 0,-32.475 0.001,-48.713 z"
   id="path12541"
   style="fill:#ffffff;fill-opacity:1" />
	<path
   fill-rule="evenodd"
   clip-rule="evenodd"
   d="m 282.28,399.318 c 0,1.12 0.305,2.355 -0.068,3.331 -0.607,1.589 -1.313,3.688 -2.601,4.343 -2.063,1.046 -4.247,0.287 -5.653,-2.011 -1.627,-2.661 -1.009,-11.517 1.379,-13.361 1.076,-0.831 2.947,-1.414 4.154,-1.063 1.086,0.315 2.166,1.947 2.512,3.202 0.482,1.753 0.28,3.695 0.372,5.556 -0.031,10e-4 -0.062,0.003 -0.095,0.003 z"
   id="path12543"
   style="fill:#ffffff;fill-opacity:1" />
</g>
</svg>
