<?xml version="1.0" encoding="UTF-8" standalone="no"?>
<!-- Generator: Adobe Illustrator 16.0.3, SVG Export Plug-In . SVG Version: 6.00 Build 0)  -->

<svg
   version="1.1"
   id="Camada_1"
   x="0px"
   y="0px"
   width="48"
   height="48"
   viewBox="0 0 47.999998 47.999999"
   enable-background="new 0 0 595.28 841.89"
   xml:space="preserve"
   sodipodi:docname="logo3.svg"
   inkscape:version="1.2.2 (732a01da63, 2022-12-09)"
   xmlns:inkscape="http://www.inkscape.org/namespaces/inkscape"
   xmlns:sodipodi="http://sodipodi.sourceforge.net/DTD/sodipodi-0.dtd"
   xmlns="http://www.w3.org/2000/svg"
   xmlns:svg="http://www.w3.org/2000/svg"><defs
   id="defs15789" /><sodipodi:namedview
   id="namedview15787"
   pagecolor="#ffffff"
   bordercolor="#000000"
   borderopacity="0.25"
   inkscape:showpageshadow="2"
   inkscape:pageopacity="0.0"
   inkscape:pagecheckerboard="0"
   inkscape:deskcolor="#d1d1d1"
   showgrid="false"
   inkscape:zoom="15.907066"
   inkscape:cx="10.247019"
   inkscape:cy="26.843417"
   inkscape:window-width="1920"
   inkscape:window-height="1017"
   inkscape:window-x="-8"
   inkscape:window-y="-8"
   inkscape:window-maximized="1"
   inkscape:current-layer="g15784" />
<g
   id="g15784"
   style="fill:#000000;fill-opacity:1"
   transform="matrix(0.27512217,0,0,0.27512217,-63.987177,-99.124825)">
	<path
   fill-rule="evenodd"
   clip-rule="evenodd"
   fill="#FFFFFF"
   d="m 330.37154,458.86339 c -0.85063,5.49962 -1.42228,11.06029 -2.62242,16.48095 -1.37385,6.19864 -5.4733,10.33598 -11.20241,13.01841 -18.91071,8.85371 -37.95091,-2.00129 -39.39003,-22.71854 -0.48322,-6.95242 -0.52006,-13.97958 -0.15581,-20.94253 1.04013,-19.89293 17.75268,-25.00303 31.4617,-22.57747 13.61744,2.40871 19.90557,10.93501 21.08361,27.71178 0.20739,2.96141 0.0284,5.95019 0.0284,8.92739 0.26635,0.0337 0.53165,0.0663 0.79694,0.10001 z m -9.45588,-1.69704 c -0.52638,-4.88796 -0.60639,-10.20124 -1.7539,-15.27448 -1.87496,-8.28732 -8.19046,-12.49836 -17.13576,-12.27096 -8.5684,0.21792 -14.41964,4.20998 -15.27342,12.76786 -0.92748,9.28323 -0.82747,18.86544 0.38847,28.11287 1.07486,8.17889 7.83042,12.27202 16.53568,12.22464 8.77264,-0.0484 13.88484,-3.71624 15.85771,-12.18884 0.97801,-4.20262 0.92853,-8.64421 1.38122,-13.37109 z"
   id="path15770"
   style="fill:#ffffff;fill-opacity:1;stroke-width:1.05276" />
	<path
   fill-rule="evenodd"
   clip-rule="evenodd"
   fill="#FFFFFF"
   d="m 356.6463,430.8579 c -5.83228,0 -10.90342,-0.0537 -15.97456,0.0211 -2.94457,0.0432 -4.58582,-0.92221 -4.65741,-4.2005 -0.0716,-3.31514 1.42649,-4.16893 4.48054,-4.14577 13.68061,0.10633 27.36226,0.0726 41.04286,0.0284 2.75929,-0.008 4.9006,0.42427 4.94271,3.86047 0.0432,3.46042 -1.73916,4.55424 -4.96692,4.46791 -5.04482,-0.1358 -10.09701,-0.0358 -15.35028,-0.0358 0,7.11033 -0.06,13.71113 0.0137,20.30982 0.12422,11.22031 0.30319,22.44272 0.52322,33.66303 0.0579,2.88456 -0.0621,5.08588 -4.01207,5.1522 -3.76466,0.0632 -4.98481,-1.52966 -5.02692,-4.94902 -0.19687,-16.13143 -0.44848,-32.26285 -0.69903,-48.39323 -0.0263,-1.71389 -0.18318,-3.42462 -0.31583,-5.77859 z"
   id="path15772"
   style="fill:#ffffff;fill-opacity:1;stroke-width:1.05276" />
	<path
   fill-rule="evenodd"
   clip-rule="evenodd"
   fill="#FFFFFF"
   d="m 262.5328,456.42941 c 0,9.46957 -0.0442,18.94019 0.0263,28.40976 0.0221,2.92246 -0.19686,5.03008 -4.08154,5.13746 -3.93943,0.10949 -4.68268,-1.68862 -4.72689,-5.05535 -0.25372,-19.28338 -0.62534,-38.56677 -1.00328,-57.8491 -0.0568,-2.88877 0.61692,-4.57635 4.07102,-4.57845 3.33724,-0.002 4.76163,1.00433 4.7132,4.49633 -0.13896,9.81172 -0.0484,19.62659 -0.0484,29.43935 0.34847,0 0.69903,0 1.0496,0 z"
   id="path15774"
   style="fill:#ffffff;fill-opacity:1;stroke-width:1.05276" />
	<path
   fill-rule="evenodd"
   clip-rule="evenodd"
   fill="#FFFFFF"
   d="m 259.52928,405.86961 c -7.30299,0 -14.60598,0 -22.34797,0 0,7.99781 0,15.60821 0,23.21965 -0.48111,0.33794 -0.96327,0.67693 -1.44438,1.01486 -0.96328,-1.09171 -2.72665,-2.16026 -2.75928,-3.27934 -0.23793,-8.1831 -0.12844,-16.37672 -0.12844,-25.2799 8.19047,0 16.70307,-0.0895 25.20726,0.12738 0.93485,0.0232 1.82338,1.80548 2.73402,2.77297 -0.42005,0.47479 -0.8401,0.94959 -1.26121,1.42438 z"
   id="path15776"
   style="fill:#ffffff;fill-opacity:1;stroke-width:1.05276" />
	<path
   fill-rule="evenodd"
   clip-rule="evenodd"
   fill="#FFFFFF"
   d="m 397.50192,401.16573 c 0,8.51998 0.0674,16.71887 -0.0863,24.91354 -0.0189,1.00118 -1.22436,1.98024 -1.87917,2.96983 -0.81589,-1.03065 -2.30449,-2.03919 -2.33818,-3.093 -0.21476,-6.77135 -0.10949,-13.55217 -0.10949,-20.8699 -7.5367,0 -13.98169,0.13265 -20.41405,-0.10738 -1.36227,-0.0505 -2.6719,-1.46544 -4.0068,-2.25185 0.24108,-0.52111 0.47901,-1.04118 0.72009,-1.56124 8.86212,0 17.7232,0 28.11393,0 z"
   id="path15778"
   style="fill:#ffffff;fill-opacity:1;stroke-width:1.05276" />
	<path
   fill-rule="evenodd"
   clip-rule="evenodd"
   fill="#FFFFFF"
   d="m 238.12143,506.68076 c 7.29351,0 13.5669,-0.13791 19.8245,0.10317 1.43912,0.0558 2.82771,1.41701 4.23946,2.175 -1.32753,0.65798 -2.64348,1.8518 -3.98574,1.88339 -7.81884,0.18107 -15.64295,0.0884 -24.33558,0.0884 0,-8.99372 -0.0547,-17.50001 0.0948,-26.00315 0.0126,-0.74746 1.3549,-1.46965 2.0792,-2.20553 0.69377,0.95064 1.96445,1.8876 1.98971,2.85508 0.17581,6.77661 0.0937,13.55849 0.0937,21.10361 z"
   id="path15780"
   style="fill:#ffffff;fill-opacity:1;stroke-width:1.05276" />
	<path
   fill-rule="evenodd"
   clip-rule="evenodd"
   fill="#FFFFFF"
   d="m 398.50941,510.23788 c -8.55262,0 -16.76414,0.10106 -24.96618,-0.11686 -1.10856,-0.0295 -2.175,-1.65493 -3.2625,-2.54136 0.28635,-0.52848 0.5748,-1.05486 0.86221,-1.58335 5.92387,0 11.87407,-0.33477 17.76531,0.10317 4.91006,0.36636 6.0702,-1.59177 5.68068,-6.0302 -0.42636,-4.88059 -0.46216,-9.80856 -0.36846,-14.71125 0.0221,-1.12435 1.27278,-2.22659 1.95708,-3.3383 0.77588,1.0896 2.19921,2.16447 2.22553,3.27092 0.19476,8.04729 0.10633,16.1009 0.10633,24.94723 z"
   id="path15782"
   style="fill:#ffffff;fill-opacity:1;stroke-width:1.05276" />
</g>
</svg>
